<?xml version="1.0" encoding="UTF-8"?><svg id="a" xmlns="http://www.w3.org/2000/svg" xmlns:xlink="http://www.w3.org/1999/xlink" viewBox="0 0 1557.9 97.79"><defs><style>.d{fill:url(#c);}.e{fill:url(#b);}.f{fill:#f15a24;}.g{fill:#fff;}.h{fill:#2e3192;}.i{stroke:rgba(255,63,10,.25);}.i,.j,.k,.l,.m{stroke-miterlimit:10;}.i,.l,.m{fill:none;}.j{fill:#fc976b;stroke:#ff3f0a;}.k{fill:#879eff;}.k,.l{stroke:#2e3192;}.m{stroke:rgba(46,49,146,.45);}.n{font-family:ArialMT, Arial;font-size:84px;}</style><radialGradient id="b" cx="-1799.95" cy="-292.55" fx="-1833.46" fy="-303.04" r="48.19" gradientTransform="translate(-1554.74 -434.55) rotate(-171.07) scale(1 .7)" gradientUnits="userSpaceOnUse"><stop offset=".05" stop-color="#f15a24" stop-opacity=".7"/><stop offset=".81" stop-color="#fff"/></radialGradient><radialGradient id="c" cx="67.42" cy="50.62" fx="33.9" fy="40.13" r="48.19" gradientTransform="translate(6.29 5.34) rotate(8.93) scale(1 .7)" gradientUnits="userSpaceOnUse"><stop offset=".05" stop-color="#689dff" stop-opacity=".7"/><stop offset=".81" stop-color="#fff"/></radialGradient></defs><rect class="g" width="558.9" height="97.79"/><g><g><path class="e" d="M237.7,47.69c.18-15.23-13.01-25.18-13.85-25.79-12.02-8.78-26.35-6.49-39.1-4.25-26.84,4.71-46.84,18.84-59.26,30.04,7.45,3.25,18.29,8.17,31.15,14.65,30.21,15.23,35.09,20.74,46.01,19.71,16.18-1.53,34.84-16.41,35.05-34.36Z"/><path class="d" d="M21.5,48.97c-.18,15.23,13.01,25.18,13.85,25.79,12.02,8.78,26.35,6.49,39.1,4.25,26.84-4.71,46.84-18.84,59.26-30.04-7.45-3.25-18.29-8.17-31.15-14.65-30.21-15.23-35.09-20.74-46.01-19.71-16.18,1.53-34.84,16.41-35.05,34.36Z"/></g><line class="m" x1="68.82" y1="77.02" x2="128.08" y2="45.37"/><line class="m" x1="45.56" y1="76.52" x2="128.08" y2="45.37"/><line class="m" x1="101.29" y1="61.65" x2="128.08" y2="45.37"/><line class="i" x1="221.82" y1="21.75" x2="128.08" y2="45.37"/><line class="i" x1="235.09" y1="35.69" x2="128.08" y2="45.37"/><line class="i" x1="239.45" y1="54.67" x2="128.08" y2="45.95"/><line class="i" x1="147.21" y1="34.16" x2="128.08" y2="45.95"/><line class="i" x1="150.54" y1="61.65" x2="128.08" y2="45.95"/><line class="m" x1="128.08" y1="58.83" x2="128.08" y2="45.37"/><line class="m" x1="128.08" y1="45.37" x2="113.17" y2="54.67"/><line class="i" x1="150.54" y1="61.65" x2="147.21" y2="34.16"/><line class="m" x1="60.6" y1="14.5" x2="21.96" y2="31.57"/><line class="m" x1="60.6" y1="14.5" x2="88.21" y2="70.12"/><line class="m" x1="37.17" y1="18.73" x2="88.21" y2="70.12"/><line class="m" x1="21.96" y1="31.57" x2="87.76" y2="70.12"/><line class="m" x1="15.87" y1="53.12" x2="87.15" y2="70.12"/><line class="m" x1="26.32" y1="70.12" x2="87.76" y2="70.12"/><line class="m" x1="80.45" y1="24.2" x2="87.76" y2="69.22"/><line class="m" x1="96.93" y1="32.33" x2="88.21" y2="70.12"/><line class="m" x1="87.9" y1="70.12" x2="115.23" y2="41.14"/><line class="m" x1="45.56" y1="76.52" x2="87.46" y2="70.12"/><line class="l" x1="68.82" y1="77.02" x2="88.21" y2="70.12"/><line class="m" x1="115.23" y1="41.33" x2="68.82" y2="77.02"/><line class="m" x1="115.02" y1="41.14" x2="45.56" y2="76.52"/><line class="m" x1="96.93" y1="32.33" x2="45.56" y2="76.52"/><line class="m" x1="96.93" y1="32.67" x2="15.87" y2="53.12"/><line class="m" x1="114.83" y1="41.14" x2="26.32" y2="70.12"/><line class="m" x1="96.93" y1="32.67" x2="65.39" y2="59.22"/><line class="m" x1="115.02" y1="41.14" x2="15.87" y2="53.12"/><line class="m" x1="115.23" y1="41.33" x2="21.96" y2="31.57"/><line class="m" x1="114.92" y1="41.14" x2="37.17" y2="18.73"/><line class="m" x1="21.96" y1="31.57" x2="96.93" y2="32.67"/><line class="m" x1="80.45" y1="24.2" x2="68.82" y2="77.02"/><line class="m" x1="45.56" y1="76.52" x2="60.6" y2="14.5"/><line class="m" x1="45.56" y1="76.52" x2="80.45" y2="24.2"/><line class="m" x1="15.87" y1="53.12" x2="60.6" y2="14.5"/><line class="m" x1="60.05" y1="14.5" x2="26.32" y2="70.12"/><line class="m" x1="45.56" y1="76.52" x2="37.17" y2="18.73"/><line class="m" x1="26.32" y1="70.12" x2="37.17" y2="18.73"/><line class="m" x1="21.96" y1="31.57" x2="45.56" y2="76.52"/><line class="m" x1="128.08" y1="45.37" x2="15.87" y2="53.12"/><line class="m" x1="101.29" y1="61.65" x2="59.85" y2="14.83"/><line class="m" x1="37.17" y1="18.73" x2="15.87" y2="53.12"/><line class="m" x1="21.39" y1="31.57" x2="26.35" y2="70.07"/><line class="m" x1="21.39" y1="31.57" x2="128.08" y2="45.37"/><line class="m" x1="15.87" y1="53.12" x2="113.17" y2="54.67"/><line class="m" x1="128.08" y1="45.95" x2="26.32" y2="70.12"/><line class="m" x1="113.17" y1="54.67" x2="37.17" y2="18.73"/><line class="i" x1="204.35" y1="14.5" x2="150.54" y2="61.65"/><line class="i" x1="204.19" y1="14.5" x2="223.07" y2="80.25"/><line class="i" x1="239.45" y1="54.67" x2="204.19" y2="14.5"/><line class="i" x1="234.12" y1="68.06" x2="204.19" y2="14.5"/><line class="i" x1="169.65" y1="68.81" x2="204.35" y2="14.5"/><line class="i" x1="204.19" y1="14.5" x2="205.43" y2="83.69"/><line class="i" x1="187.78" y1="76.52" x2="204.19" y2="14.5"/><line class="i" x1="204.19" y1="14.5" x2="235.09" y2="35.69"/><line class="i" x1="147.21" y1="34.16" x2="235.09" y2="35.69"/><line class="i" x1="234.12" y1="68.06" x2="128.08" y2="58.83"/><line class="i" x1="204.35" y1="14.37" x2="128.08" y2="58.91"/><line class="i" x1="165.29" y1="22.97" x2="204.35" y2="14.37"/><line class="i" x1="234.12" y1="68.06" x2="147.21" y2="34.16"/><line class="i" x1="186.49" y1="15.74" x2="150.61" y2="61.65"/><line class="i" x1="169.72" y1="68.81" x2="186.49" y2="15.74"/><line class="i" x1="166.21" y1="22.76" x2="150.61" y2="61.65"/><line class="i" x1="186.49" y1="15.74" x2="128.15" y2="58.91"/><line class="i" x1="147.21" y1="34.59" x2="204.42" y2="14.37"/><line class="i" x1="234.12" y1="68.06" x2="235.09" y2="35.69"/><line class="i" x1="239.45" y1="54.67" x2="150.54" y2="61.65"/><line class="i" x1="235.09" y1="35.69" x2="150.61" y2="61.65"/><line class="i" x1="221.82" y1="21.75" x2="150.61" y2="61.65"/><line class="i" x1="239.45" y1="54.67" x2="223.07" y2="80.25"/><line class="i" x1="169.65" y1="68.81" x2="221.82" y2="21.75"/><line class="i" x1="235.09" y1="35.69" x2="205.43" y2="83.69"/><line class="i" x1="187.78" y1="76.52" x2="235.09" y2="35.69"/><line class="i" x1="235.09" y1="35.69" x2="169.65" y2="68.81"/><line class="i" x1="186.52" y1="15.9" x2="187.78" y2="76.52"/><line class="i" x1="166.25" y1="22.93" x2="169.65" y2="68.81"/><line class="i" x1="221.86" y1="21.92" x2="187.78" y2="76.52"/><line class="i" x1="235.09" y1="35.69" x2="223.07" y2="79.46"/><line class="i" x1="187.78" y1="76.52" x2="147.21" y2="34.16"/><line class="i" x1="205.43" y1="83.69" x2="165.29" y2="22.97"/><line class="i" x1="128.41" y1="58.71" x2="235.09" y2="35.69"/><line class="i" x1="147.21" y1="34.59" x2="205.43" y2="83.69"/><line class="i" x1="234.12" y1="68.06" x2="205.43" y2="83.69"/><line class="i" x1="239.24" y1="54.43" x2="205.43" y2="83.69"/><line class="i" x1="221.86" y1="21.92" x2="205.43" y2="83.69"/><line class="i" x1="186.22" y1="15.74" x2="205.43" y2="83.49"/><line class="i" x1="221.82" y1="21.56" x2="128.41" y2="58.71"/><line class="m" x1="128.41" y1="58.71" x2="113.17" y2="54.67"/><line class="i" x1="128.41" y1="58.71" x2="147.21" y2="34.59"/><line class="i" x1="170.48" y1="68.06" x2="147.21" y2="34.59"/><line class="i" x1="128.08" y1="45.37" x2="223.07" y2="80.25"/><ellipse class="j" cx="234.12" cy="68.06" rx="4.36" ry="4.23"/><ellipse class="j" cx="223.07" cy="79.46" rx="4.36" ry="4.23"/><ellipse class="j" cx="205.43" cy="83.69" rx="4.36" ry="4.23"/><ellipse class="j" cx="235.09" cy="35.69" rx="4.36" ry="4.23"/><ellipse class="j" cx="239.45" cy="54.67" rx="4.36" ry="4.23"/><ellipse class="j" cx="187.78" cy="76.52" rx="4.36" ry="4.23"/><ellipse class="j" cx="169.65" cy="68.06" rx="4.36" ry="4.23"/><ellipse class="j" cx="150.54" cy="61.65" rx="4.36" ry="4.23"/><ellipse class="j" cx="128.08" cy="58.91" rx="4.36" ry="4.23"/><ellipse class="j" cx="221.58" cy="21.75" rx="4.36" ry="4.23"/><ellipse class="j" cx="165.29" cy="22.97" rx="4.36" ry="4.23"/><ellipse class="j" cx="204.35" cy="14.5" rx="4.36" ry="4.23"/><ellipse class="j" cx="147.21" cy="34.16" rx="4.36" ry="4.23"/><ellipse class="j" cx="186.05" cy="15.74" rx="4.36" ry="4.23"/><ellipse class="k" cx="21.96" cy="31.57" rx="4.36" ry="4.23"/><ellipse class="k" cx="15.87" cy="53.12" rx="4.36" ry="4.23"/><ellipse class="k" cx="37.17" cy="18.73" rx="4.36" ry="4.23"/><ellipse class="k" cx="88.21" cy="70.12" rx="4.36" ry="4.23"/><ellipse class="k" cx="96.93" cy="32.67" rx="4.36" ry="4.23"/><ellipse class="k" cx="113.17" cy="54.67" rx="4.36" ry="4.23"/><ellipse class="k" cx="68.82" cy="76.52" rx="4.36" ry="4.23"/><ellipse class="k" cx="115.23" cy="41.14" rx="4.36" ry="4.23"/><ellipse class="k" cx="80.45" cy="24.2" rx="4.36" ry="4.23"/><ellipse class="k" cx="45.56" cy="76.52" rx="4.36" ry="4.23"/><ellipse class="k" cx="26.32" cy="70.12" rx="4.36" ry="4.23"/><ellipse class="k" cx="101.29" cy="61.65" rx="4.36" ry="4.23"/><ellipse class="k" cx="128.08" cy="45.37" rx="4.36" ry="4.23"/><ellipse class="k" cx="60.6" cy="14.5" rx="4.36" ry="4.23"/></g><text class="n" transform="translate(265.69 77.69)"><tspan class="f" x="0" y="0">flex</tspan><tspan class="h" x="130.72" y="0">inet</tspan></text></svg>